<?xml version="1.0" standalone="no"?>
<!DOCTYPE svg PUBLIC "-//W3C//DTD SVG 20010904//EN"
 "http://www.w3.org/TR/2001/REC-SVG-20010904/DTD/svg10.dtd">
<svg version="1.0" xmlns="http://www.w3.org/2000/svg"
 width="512.000000pt" height="512.000000pt" viewBox="0 0 512.000000 512.000000"
 preserveAspectRatio="xMidYMid meet">
<metadata>
Created by potrace 1.14, written by Peter Selinger 2001-2017
</metadata>
<g transform="translate(0.000000,512.000000) scale(0.100000,-0.100000)"
fill="#000000" stroke="none">
<path d="M1968 3736 c-94 -39 -146 -91 -186 -189 -36 -90 -28 -176 27 -286 23
-46 41 -88 40 -94 -1 -22 -217 -192 -291 -229 -237 -120 -512 -32 -648 209
-73 130 -178 200 -312 210 -56 4 -88 1 -126 -11 -63 -21 -146 -93 -171 -150
-17 -36 -39 -139 -55 -246 -27 -187 -46 -339 -51 -405 -4 -44 -8 -91 -10 -104
-12 -70 -20 -294 -20 -526 l0 -260 29 -60 c41 -83 112 -155 194 -196 l67 -34
1405 0 c1228 0 1620 4 1825 20 28 2 91 7 140 10 368 25 583 80 863 217 155 76
205 116 244 197 20 39 23 61 22 146 -1 131 -37 229 -121 329 l-31 39 -140 17
c-274 35 -683 124 -916 198 -57 19 -60 21 -73 65 -16 56 -40 80 -190 194 -226
171 -459 310 -698 418 -71 32 -135 64 -142 69 -6 6 -24 36 -39 66 -15 30 -35
65 -43 76 -9 12 -23 32 -31 44 -59 89 -212 216 -317 262 -71 32 -173 33 -245
4z"/>
</g>
</svg>
